<svg width="128" height="128" viewBox="0 0 128 128" fill="none" xmlns="http://www.w3.org/2000/svg">
<g clip-path="url(#clip0_138_140)">
<path d="M64 128C99.3462 128 128 99.3462 128 64C128 28.6538 99.3462 0 64 0C28.6538 0 0 28.6538 0 64C0 99.3462 28.6538 128 64 128Z" fill="#DDDBD5"></path>
<path d="M64.1009 101.68C79.7809 93.2203 86.3109 88.1003 88.9709 82.4403C90.1609 79.9003 90.7409 77.0503 90.7409 74.1603V33.0603C87.5209 33.5903 82.3309 33.9703 76.2109 32.2903C70.7909 30.8003 66.7009 28.2503 64.1009 26.3203C61.5109 28.2503 57.4109 30.8003 51.9909 32.2903C45.8709 33.9703 40.6709 33.5903 37.4609 33.0603V74.1603C37.4609 77.0503 38.0409 79.9003 39.2309 82.4403C41.8909 88.0903 48.4109 93.2203 64.1009 101.68Z" fill="#003652"></path>
<path d="M51.8584 46.5977L48.6484 47.1977V56.6677C48.6484 61.4077 52.4884 65.2577 57.2284 65.2577C61.9684 65.2577 65.8084 61.4177 65.8084 56.6677V47.1977L62.5984 46.5977" stroke="#DDDBD5" stroke-width="1.5" stroke-miterlimit="10"></path>
<path d="M57.2188 64.4688V73.9388C57.2188 78.6788 61.0588 82.5287 65.7988 82.5287C70.5388 82.5287 74.3787 78.6888 74.3787 73.9388V64.4688" stroke="#DDDBD5" stroke-width="1.5" stroke-miterlimit="10"></path>
<path d="M51.8594 45.3086V47.8786" stroke="#DDDBD5" stroke-width="1.5" stroke-miterlimit="10"></path>
<path d="M62.5898 45.3086V47.8786" stroke="#DDDBD5" stroke-width="1.5" stroke-miterlimit="10"></path>
<path d="M74.3786 69.5384C77.1787 69.5384 79.4486 67.2685 79.4486 64.4684C79.4486 61.6684 77.1787 59.3984 74.3786 59.3984C71.5785 59.3984 69.3086 61.6684 69.3086 64.4684C69.3086 67.2685 71.5785 69.5384 74.3786 69.5384Z" fill="#DDDBD5"></path>
<path d="M74.3789 62.6467C73.8989 62.6467 73.4389 62.8367 73.0889 63.1767C72.6889 63.5767 72.4989 64.1367 72.5689 64.7167C72.6689 65.5167 73.3289 66.1767 74.1189 66.2767C74.6889 66.3467 75.2489 66.1567 75.6489 65.7567C76.0489 65.3567 76.2389 64.7967 76.1689 64.2167C76.0689 63.4167 75.4089 62.7567 74.6189 62.6567C74.5389 62.6467 74.4589 62.6367 74.3789 62.6367V62.6467Z" fill="#003652"></path>
</g>
<defs>
<clipPath id="clip0_138_140">
<rect width="128" height="128" fill="white"></rect>
</clipPath>
</defs>
</svg>