<svg width="128" height="128" viewBox="0 0 128 128" fill="none" xmlns="http://www.w3.org/2000/svg">
<g clip-path="url(#clip0_46_4621)">
<path d="M64 128C99.3462 128 128 99.3462 128 64C128 28.6538 99.3462 0 64 0C28.6538 0 0 28.6538 0 64C0 99.3462 28.6538 128 64 128Z" fill="#DDDBD5"></path>
<path d="M95.9492 56.0624C97.4492 54.7324 99.4692 53.6924 101.869 54.2024C107.289 55.3424 105.779 60.3224 103.119 60.0324C100.739 59.7824 100.089 56.5824 102.619 55.1724C105.049 53.8224 107.879 56.3024 108.199 56.9024" stroke="#003652" stroke-width="1.5" stroke-miterlimit="10"></path>
<path d="M79.8406 38.9018C63.4006 33.9918 50.0606 40.3218 50.0606 40.3218C49.9706 40.3718 49.8806 40.4118 49.7906 40.4618C45.4506 36.7418 39.0706 35.9018 38.3106 38.2518C37.7606 39.9418 39.4906 43.8318 41.1406 46.9618C38.9006 49.3518 37.1906 51.9918 36.2506 54.6918C34.9506 58.4218 31.2106 58.2618 28.0706 59.1218C24.9306 59.9818 26.9906 73.2818 31.3006 73.8818C35.6006 74.4818 36.7706 75.4318 36.7706 75.4318C42.0606 80.0318 49.2506 83.0518 49.2506 83.0518C50.3706 86.2818 49.7206 91.0118 51.7006 90.9718C53.6806 90.9218 62.3306 91.9218 62.3706 90.2018C62.4106 88.4818 63.2306 85.2518 63.2306 85.2518C66.2906 86.2418 72.2706 85.3418 72.2706 85.3418C72.2706 85.3418 72.6106 86.3318 72.6606 88.7418C72.7006 91.1518 74.3006 90.8118 74.3006 90.8118C79.0306 90.8118 84.2406 91.8918 84.4606 88.6218C84.6806 85.3518 87.8106 81.8218 87.8106 81.8218C104.971 65.4218 96.2906 43.8218 79.8506 38.9218L79.8406 38.9018ZM75.1606 42.3618C75.0706 42.7218 74.7406 42.9518 74.3906 42.9518C74.3206 42.9518 74.2506 42.9518 74.1906 42.9218C66.8106 40.9718 58.9606 42.9018 58.8906 42.9218C58.4606 43.0318 58.0306 42.7718 57.9306 42.3418C57.8206 41.9118 58.0806 41.4818 58.5006 41.3818C58.8406 41.3018 66.8206 39.3218 74.6006 41.3818C75.0206 41.4918 75.2806 41.9318 75.1606 42.3518V42.3618Z" fill="#003652"></path>
<path d="M44.9102 69.4383L54.9802 59.8483L64.2102 69.1983L76.7302 56.7383" stroke="#DDDBD5" stroke-width="3" stroke-miterlimit="10"></path>
<path d="M79.7095 62.2102L82.8395 50.6602L71.2695 53.7302L79.7095 62.2102Z" fill="#DDDBD5"></path>
<path d="M64 128C99.3462 128 128 99.3462 128 64C128 28.6538 99.3462 0 64 0C28.6538 0 0 28.6538 0 64C0 99.3462 28.6538 128 64 128Z" fill="#DDDBD5"></path>
<path d="M95.9492 56.0624C97.4492 54.7324 99.4692 53.6924 101.869 54.2024C107.289 55.3424 105.779 60.3224 103.119 60.0324C100.739 59.7824 100.089 56.5824 102.619 55.1724C105.049 53.8224 107.879 56.3024 108.199 56.9024" stroke="#003652" stroke-width="1.5" stroke-miterlimit="10"></path>
<path d="M79.8406 38.9018C63.4006 33.9918 50.0606 40.3218 50.0606 40.3218C49.9706 40.3718 49.8806 40.4118 49.7906 40.4618C45.4506 36.7418 39.0706 35.9018 38.3106 38.2518C37.7606 39.9418 39.4906 43.8318 41.1406 46.9618C38.9006 49.3518 37.1906 51.9918 36.2506 54.6918C34.9506 58.4218 31.2106 58.2618 28.0706 59.1218C24.9306 59.9818 26.9906 73.2818 31.3006 73.8818C35.6006 74.4818 36.7706 75.4318 36.7706 75.4318C42.0606 80.0318 49.2506 83.0518 49.2506 83.0518C50.3706 86.2818 49.7206 91.0118 51.7006 90.9718C53.6806 90.9218 62.3306 91.9218 62.3706 90.2018C62.4106 88.4818 63.2306 85.2518 63.2306 85.2518C66.2906 86.2418 72.2706 85.3418 72.2706 85.3418C72.2706 85.3418 72.6106 86.3318 72.6606 88.7418C72.7006 91.1518 74.3006 90.8118 74.3006 90.8118C79.0306 90.8118 84.2406 91.8918 84.4606 88.6218C84.6806 85.3518 87.8106 81.8218 87.8106 81.8218C104.971 65.4218 96.2906 43.8218 79.8506 38.9218L79.8406 38.9018ZM75.1606 42.3618C75.0706 42.7218 74.7406 42.9518 74.3906 42.9518C74.3206 42.9518 74.2506 42.9518 74.1906 42.9218C66.8106 40.9718 58.9606 42.9018 58.8906 42.9218C58.4606 43.0318 58.0306 42.7718 57.9306 42.3418C57.8206 41.9118 58.0806 41.4818 58.5006 41.3818C58.8406 41.3018 66.8206 39.3218 74.6006 41.3818C75.0206 41.4918 75.2806 41.9318 75.1606 42.3518V42.3618Z" fill="#003652"></path>
<path d="M44.9102 69.4383L54.9802 59.8483L64.2102 69.1983L76.7302 56.7383" stroke="#DDDBD5" stroke-width="3" stroke-miterlimit="10"></path>
<path d="M79.7095 62.2102L82.8395 50.6602L71.2695 53.7302L79.7095 62.2102Z" fill="#DDDBD5"></path>
</g>
<defs>
<clipPath id="clip0_46_4621">
<rect width="128" height="128" fill="white"></rect>
</clipPath>
</defs>
</svg>