<svg width="128" height="128" viewBox="0 0 128 128" fill="none" xmlns="http://www.w3.org/2000/svg">
<g clip-path="url(#clip0_46_6271)">
<path d="M64 128C99.3462 128 128 99.3462 128 64C128 28.6538 99.3462 0 64 0C28.6538 0 0 28.6538 0 64C0 99.3462 28.6538 128 64 128Z" fill="#DDDBD5"></path>
<path d="M90.8603 64.0586H35.8203" stroke="#003652" stroke-width="3.01" stroke-miterlimit="10"></path>
<path d="M70.1292 26.1289H52.1992" stroke="#003652" stroke-width="3.01" stroke-miterlimit="10"></path>
<path d="M70.1292 101.262H52.1992" stroke="#003652" stroke-width="3.01" stroke-miterlimit="10"></path>
<path d="M53.5703 25.7695V101.26" stroke="#003652" stroke-width="3.01" stroke-miterlimit="10"></path>
<path d="M30.5595 78.8613C38.8659 78.8613 45.5995 72.1276 45.5995 63.8213C45.5995 55.5149 38.8659 48.7812 30.5595 48.7812C22.2532 48.7812 15.5195 55.5149 15.5195 63.8213C15.5195 72.1276 22.2532 78.8613 30.5595 78.8613Z" fill="#003652"></path>
<path d="M79.4814 116.299C87.7878 116.299 94.5214 109.565 94.5214 101.259C94.5214 92.9524 87.7878 86.2188 79.4814 86.2188C71.175 86.2188 64.4414 92.9524 64.4414 101.259C64.4414 109.565 71.175 116.299 79.4814 116.299Z" fill="#47A3C8"></path>
<path d="M90.8291 79.0019C99.1354 79.0019 105.869 72.2682 105.869 63.9619C105.869 55.6555 99.1354 48.9219 90.8291 48.9219C82.5227 48.9219 75.7891 55.6555 75.7891 63.9619C75.7891 72.2682 82.5227 79.0019 90.8291 79.0019Z" fill="#47A3C8"></path>
<path d="M79.4814 41.2597C87.7878 41.2597 94.5214 34.5261 94.5214 26.2197C94.5214 17.9133 87.7878 11.1797 79.4814 11.1797C71.175 11.1797 64.4414 17.9133 64.4414 26.2197C64.4414 34.5261 71.175 41.2597 79.4814 41.2597Z" fill="#47A3C8"></path>
</g>
<defs>
<clipPath id="clip0_46_6271">
<rect width="128" height="128" fill="white"></rect>
</clipPath>
</defs>
</svg>